<mxfile host="app.diagrams.net" agent="Mozilla/5.0 (Windows NT 10.0; Win64; x64) AppleWebKit/537.36 (KHTML, like Gecko) Chrome/140.0.0.0 Safari/537.36" version="28.2.5">
  <diagram name="Page-1" id="QpWwC6ZaQhzlFjF6OX_h">
    <mxGraphModel dx="2287" dy="1993" grid="0" gridSize="10" guides="1" tooltips="1" connect="1" arrows="1" fold="1" page="0" pageScale="1" pageWidth="850" pageHeight="1100" math="0" shadow="0">
      <root>
        <mxCell id="0" />
        <mxCell id="1" parent="0" />
        <mxCell id="kXxbAkpytbKIzll8L2PJ-82" style="edgeStyle=orthogonalEdgeStyle;rounded=0;orthogonalLoop=1;jettySize=auto;html=1;fontFamily=Helvetica;fontSize=25;fontColor=default;endArrow=none;endFill=0;" parent="1" target="kXxbAkpytbKIzll8L2PJ-45" edge="1">
          <mxGeometry relative="1" as="geometry">
            <mxPoint x="162.49999999999955" y="71" as="sourcePoint" />
            <Array as="points">
              <mxPoint x="162.5" y="111" />
              <mxPoint x="162.5" y="111" />
            </Array>
          </mxGeometry>
        </mxCell>
        <mxCell id="kXxbAkpytbKIzll8L2PJ-2" value="CanBo" style="rounded=0;whiteSpace=wrap;html=1;fontSize=25;" parent="1" vertex="1">
          <mxGeometry x="68" y="11" width="120" height="60" as="geometry" />
        </mxCell>
        <mxCell id="kXxbAkpytbKIzll8L2PJ-3" value="có quyền" style="html=1;whiteSpace=wrap;aspect=fixed;shape=isoRectangle;fontSize=25;" parent="1" vertex="1">
          <mxGeometry x="331" y="-159" width="150" height="90" as="geometry" />
        </mxCell>
        <mxCell id="kXxbAkpytbKIzll8L2PJ-49" style="edgeStyle=orthogonalEdgeStyle;rounded=0;orthogonalLoop=1;jettySize=auto;html=1;entryX=0;entryY=0.5;entryDx=0;entryDy=0;fontFamily=Helvetica;fontSize=25;fontColor=default;endArrow=none;endFill=0;" parent="1" source="kXxbAkpytbKIzll8L2PJ-4" target="kXxbAkpytbKIzll8L2PJ-12" edge="1">
          <mxGeometry relative="1" as="geometry" />
        </mxCell>
        <mxCell id="kXxbAkpytbKIzll8L2PJ-4" value="Có quyền" style="html=1;whiteSpace=wrap;aspect=fixed;shape=isoRectangle;fontSize=25;" parent="1" vertex="1">
          <mxGeometry x="331" y="-4" width="150" height="90" as="geometry" />
        </mxCell>
        <mxCell id="kXxbAkpytbKIzll8L2PJ-65" style="edgeStyle=orthogonalEdgeStyle;rounded=0;orthogonalLoop=1;jettySize=auto;html=1;entryX=0;entryY=0.5;entryDx=0;entryDy=0;fontFamily=Helvetica;fontSize=25;fontColor=default;endArrow=none;endFill=0;" parent="1" source="kXxbAkpytbKIzll8L2PJ-5" target="kXxbAkpytbKIzll8L2PJ-13" edge="1">
          <mxGeometry relative="1" as="geometry" />
        </mxCell>
        <mxCell id="kXxbAkpytbKIzll8L2PJ-5" value="có quyền" style="html=1;whiteSpace=wrap;aspect=fixed;shape=isoRectangle;fontSize=25;" parent="1" vertex="1">
          <mxGeometry x="331" y="151" width="150" height="90" as="geometry" />
        </mxCell>
        <mxCell id="kXxbAkpytbKIzll8L2PJ-7" value="" style="endArrow=none;html=1;rounded=0;exitX=1;exitY=0;exitDx=0;exitDy=0;entryX=0.041;entryY=0.444;entryDx=0;entryDy=0;entryPerimeter=0;" parent="1" source="kXxbAkpytbKIzll8L2PJ-2" target="kXxbAkpytbKIzll8L2PJ-3" edge="1">
          <mxGeometry width="50" height="50" relative="1" as="geometry">
            <mxPoint x="686" y="354" as="sourcePoint" />
            <mxPoint x="736" y="304" as="targetPoint" />
          </mxGeometry>
        </mxCell>
        <mxCell id="kXxbAkpytbKIzll8L2PJ-9" value="" style="endArrow=none;html=1;rounded=0;exitX=1;exitY=0.5;exitDx=0;exitDy=0;" parent="1" source="kXxbAkpytbKIzll8L2PJ-2" edge="1">
          <mxGeometry width="50" height="50" relative="1" as="geometry">
            <mxPoint x="252" y="3" as="sourcePoint" />
            <mxPoint x="330" y="41" as="targetPoint" />
          </mxGeometry>
        </mxCell>
        <mxCell id="kXxbAkpytbKIzll8L2PJ-10" value="" style="endArrow=none;html=1;rounded=0;exitX=1;exitY=1;exitDx=0;exitDy=0;entryX=0.005;entryY=0.505;entryDx=0;entryDy=0;entryPerimeter=0;" parent="1" source="kXxbAkpytbKIzll8L2PJ-2" target="kXxbAkpytbKIzll8L2PJ-5" edge="1">
          <mxGeometry width="50" height="50" relative="1" as="geometry">
            <mxPoint x="246" y="34" as="sourcePoint" />
            <mxPoint x="448" y="69" as="targetPoint" />
          </mxGeometry>
        </mxCell>
        <mxCell id="kXxbAkpytbKIzll8L2PJ-11" value="Admin" style="rounded=0;whiteSpace=wrap;html=1;strokeColor=default;align=center;verticalAlign=middle;fontFamily=Helvetica;fontSize=25;fontColor=default;fillColor=default;" parent="1" vertex="1">
          <mxGeometry x="346" y="-347" width="120" height="60" as="geometry" />
        </mxCell>
        <mxCell id="kXxbAkpytbKIzll8L2PJ-50" style="edgeStyle=orthogonalEdgeStyle;rounded=0;orthogonalLoop=1;jettySize=auto;html=1;fontFamily=Helvetica;fontSize=25;fontColor=default;endArrow=none;endFill=0;" parent="1" source="kXxbAkpytbKIzll8L2PJ-12" target="kXxbAkpytbKIzll8L2PJ-42" edge="1">
          <mxGeometry relative="1" as="geometry" />
        </mxCell>
        <mxCell id="kXxbAkpytbKIzll8L2PJ-12" value="Trưởng khoa" style="rounded=0;whiteSpace=wrap;html=1;strokeColor=default;align=center;verticalAlign=middle;fontFamily=Helvetica;fontSize=25;fontColor=default;fillColor=default;" parent="1" vertex="1">
          <mxGeometry x="563" y="11" width="120" height="60" as="geometry" />
        </mxCell>
        <mxCell id="kXxbAkpytbKIzll8L2PJ-13" value="Giảng viên" style="rounded=0;whiteSpace=wrap;html=1;strokeColor=default;align=center;verticalAlign=middle;fontFamily=Helvetica;fontSize=25;fontColor=default;fillColor=default;" parent="1" vertex="1">
          <mxGeometry x="563" y="166" width="120" height="60" as="geometry" />
        </mxCell>
        <mxCell id="kXxbAkpytbKIzll8L2PJ-14" value="" style="endArrow=none;html=1;rounded=0;fontFamily=Helvetica;fontSize=25;fontColor=default;entryX=0.497;entryY=0.031;entryDx=0;entryDy=0;entryPerimeter=0;exitX=0.5;exitY=1;exitDx=0;exitDy=0;strokeColor=default;" parent="1" source="kXxbAkpytbKIzll8L2PJ-11" target="kXxbAkpytbKIzll8L2PJ-3" edge="1">
          <mxGeometry width="50" height="50" relative="1" as="geometry">
            <mxPoint x="444" y="218" as="sourcePoint" />
            <mxPoint x="494" y="168" as="targetPoint" />
          </mxGeometry>
        </mxCell>
        <mxCell id="kXxbAkpytbKIzll8L2PJ-15" value="Khoa" style="rounded=0;whiteSpace=wrap;html=1;strokeColor=default;align=center;verticalAlign=middle;fontFamily=Helvetica;fontSize=25;fontColor=default;fillColor=default;" parent="1" vertex="1">
          <mxGeometry x="771.5" y="-167.1" width="120" height="60" as="geometry" />
        </mxCell>
        <mxCell id="kXxbAkpytbKIzll8L2PJ-87" style="edgeStyle=orthogonalEdgeStyle;rounded=0;orthogonalLoop=1;jettySize=auto;html=1;fontFamily=Helvetica;fontSize=25;fontColor=default;endArrow=none;endFill=0;" parent="1" source="kXxbAkpytbKIzll8L2PJ-17" target="kXxbAkpytbKIzll8L2PJ-63" edge="1">
          <mxGeometry relative="1" as="geometry" />
        </mxCell>
        <mxCell id="kXxbAkpytbKIzll8L2PJ-17" value="Nganh" style="rounded=0;whiteSpace=wrap;html=1;strokeColor=default;align=center;verticalAlign=middle;fontFamily=Helvetica;fontSize=25;fontColor=default;fillColor=default;flipV=0;" parent="1" vertex="1">
          <mxGeometry x="1013.75" y="-154" width="120" height="60" as="geometry" />
        </mxCell>
        <mxCell id="kXxbAkpytbKIzll8L2PJ-85" style="edgeStyle=orthogonalEdgeStyle;rounded=0;orthogonalLoop=1;jettySize=auto;html=1;fontFamily=Helvetica;fontSize=25;fontColor=default;endArrow=none;endFill=0;" parent="1" source="kXxbAkpytbKIzll8L2PJ-18" target="kXxbAkpytbKIzll8L2PJ-64" edge="1">
          <mxGeometry relative="1" as="geometry" />
        </mxCell>
        <mxCell id="kXxbAkpytbKIzll8L2PJ-18" value="MonHoc" style="rounded=0;whiteSpace=wrap;html=1;strokeColor=default;align=center;verticalAlign=middle;fontFamily=Helvetica;fontSize=25;fontColor=default;fillColor=default;flipV=0;" parent="1" vertex="1">
          <mxGeometry x="1013.75" y="173.8" width="120" height="60" as="geometry" />
        </mxCell>
        <mxCell id="kXxbAkpytbKIzll8L2PJ-19" value="LopHocPhan" style="rounded=0;whiteSpace=wrap;html=1;strokeColor=default;align=center;verticalAlign=middle;fontFamily=Helvetica;fontSize=25;fontColor=default;fillColor=default;" parent="1" vertex="1">
          <mxGeometry x="991.75" y="428" width="164" height="60" as="geometry" />
        </mxCell>
        <mxCell id="kXxbAkpytbKIzll8L2PJ-20" value="ChuongTrinh" style="rounded=0;whiteSpace=wrap;html=1;strokeColor=default;align=center;verticalAlign=middle;fontFamily=Helvetica;fontSize=25;fontColor=default;fillColor=default;" parent="1" vertex="1">
          <mxGeometry x="1216" y="-4" width="159" height="60" as="geometry" />
        </mxCell>
        <mxCell id="kXxbAkpytbKIzll8L2PJ-66" style="edgeStyle=orthogonalEdgeStyle;rounded=0;orthogonalLoop=1;jettySize=auto;html=1;fontFamily=Helvetica;fontSize=25;fontColor=default;endArrow=none;endFill=0;" parent="1" source="kXxbAkpytbKIzll8L2PJ-21" target="kXxbAkpytbKIzll8L2PJ-32" edge="1">
          <mxGeometry relative="1" as="geometry" />
        </mxCell>
        <mxCell id="kXxbAkpytbKIzll8L2PJ-21" value="Role" style="rounded=0;whiteSpace=wrap;html=1;strokeColor=default;align=center;verticalAlign=middle;fontFamily=Helvetica;fontSize=25;fontColor=default;fillColor=default;flipV=1;" parent="1" vertex="1">
          <mxGeometry x="-184" y="-118" width="120" height="60" as="geometry" />
        </mxCell>
        <mxCell id="kXxbAkpytbKIzll8L2PJ-70" style="edgeStyle=orthogonalEdgeStyle;rounded=0;orthogonalLoop=1;jettySize=auto;html=1;fontFamily=Helvetica;fontSize=25;fontColor=default;endArrow=none;endFill=0;" parent="1" source="kXxbAkpytbKIzll8L2PJ-22" target="kXxbAkpytbKIzll8L2PJ-36" edge="1">
          <mxGeometry relative="1" as="geometry" />
        </mxCell>
        <mxCell id="kXxbAkpytbKIzll8L2PJ-22" value="Users" style="rounded=0;whiteSpace=wrap;html=1;strokeColor=default;align=center;verticalAlign=middle;fontFamily=Helvetica;fontSize=25;fontColor=default;fillColor=default;" parent="1" vertex="1">
          <mxGeometry x="68" y="-245" width="120" height="60" as="geometry" />
        </mxCell>
        <mxCell id="kXxbAkpytbKIzll8L2PJ-67" style="edgeStyle=orthogonalEdgeStyle;rounded=0;orthogonalLoop=1;jettySize=auto;html=1;fontFamily=Helvetica;fontSize=25;fontColor=default;endArrow=none;endFill=0;" parent="1" source="kXxbAkpytbKIzll8L2PJ-23" target="kXxbAkpytbKIzll8L2PJ-33" edge="1">
          <mxGeometry relative="1" as="geometry" />
        </mxCell>
        <mxCell id="kXxbAkpytbKIzll8L2PJ-23" value="TaiKhoan" style="rounded=0;whiteSpace=wrap;html=1;strokeColor=default;align=center;verticalAlign=middle;fontFamily=Helvetica;fontSize=25;fontColor=default;fillColor=default;" parent="1" vertex="1">
          <mxGeometry x="-181" y="-359.3" width="120" height="60" as="geometry" />
        </mxCell>
        <mxCell id="kXxbAkpytbKIzll8L2PJ-26" value="TrinhDo" style="rounded=0;whiteSpace=wrap;html=1;strokeColor=default;align=center;verticalAlign=middle;fontFamily=Helvetica;fontSize=25;fontColor=default;fillColor=default;" parent="1" vertex="1">
          <mxGeometry x="-290" y="195.5" width="120" height="60" as="geometry" />
        </mxCell>
        <mxCell id="kXxbAkpytbKIzll8L2PJ-27" value="ChucVu" style="rounded=0;whiteSpace=wrap;html=1;strokeColor=default;align=center;verticalAlign=middle;fontFamily=Helvetica;fontSize=25;fontColor=default;fillColor=default;" parent="1" vertex="1">
          <mxGeometry x="102" y="315" width="120" height="60" as="geometry" />
        </mxCell>
        <mxCell id="kXxbAkpytbKIzll8L2PJ-29" value="BacLuong" style="rounded=0;whiteSpace=wrap;html=1;strokeColor=default;align=center;verticalAlign=middle;fontFamily=Helvetica;fontSize=25;fontColor=default;fillColor=default;" parent="1" vertex="1">
          <mxGeometry x="-290" y="11" width="120" height="60" as="geometry" />
        </mxCell>
        <mxCell id="kXxbAkpytbKIzll8L2PJ-30" value="BangLuong" style="rounded=0;whiteSpace=wrap;html=1;strokeColor=default;align=center;verticalAlign=middle;fontFamily=Helvetica;fontSize=25;fontColor=default;fillColor=default;" parent="1" vertex="1">
          <mxGeometry x="-326" y="108.5" width="156" height="60" as="geometry" />
        </mxCell>
        <mxCell id="kXxbAkpytbKIzll8L2PJ-68" style="edgeStyle=orthogonalEdgeStyle;rounded=0;orthogonalLoop=1;jettySize=auto;html=1;entryX=0;entryY=0.5;entryDx=0;entryDy=0;fontFamily=Helvetica;fontSize=25;fontColor=default;endArrow=none;endFill=0;" parent="1" source="kXxbAkpytbKIzll8L2PJ-32" target="kXxbAkpytbKIzll8L2PJ-22" edge="1">
          <mxGeometry relative="1" as="geometry" />
        </mxCell>
        <mxCell id="kXxbAkpytbKIzll8L2PJ-32" value="gán cho" style="html=1;whiteSpace=wrap;aspect=fixed;shape=isoRectangle;fontSize=25;flipV=1;" parent="1" vertex="1">
          <mxGeometry x="-189" y="-254" width="130" height="78" as="geometry" />
        </mxCell>
        <mxCell id="kXxbAkpytbKIzll8L2PJ-69" style="edgeStyle=orthogonalEdgeStyle;rounded=0;orthogonalLoop=1;jettySize=auto;html=1;entryX=0.5;entryY=0;entryDx=0;entryDy=0;fontFamily=Helvetica;fontSize=25;fontColor=default;endArrow=none;endFill=0;" parent="1" source="kXxbAkpytbKIzll8L2PJ-33" target="kXxbAkpytbKIzll8L2PJ-22" edge="1">
          <mxGeometry relative="1" as="geometry" />
        </mxCell>
        <mxCell id="kXxbAkpytbKIzll8L2PJ-33" value="sở hữu" style="html=1;whiteSpace=wrap;aspect=fixed;shape=isoRectangle;fontSize=25;" parent="1" vertex="1">
          <mxGeometry x="69" y="-365" width="119" height="71.4" as="geometry" />
        </mxCell>
        <mxCell id="kXxbAkpytbKIzll8L2PJ-71" style="edgeStyle=orthogonalEdgeStyle;rounded=0;orthogonalLoop=1;jettySize=auto;html=1;fontFamily=Helvetica;fontSize=25;fontColor=default;endArrow=none;endFill=0;" parent="1" source="kXxbAkpytbKIzll8L2PJ-36" target="kXxbAkpytbKIzll8L2PJ-2" edge="1">
          <mxGeometry relative="1" as="geometry" />
        </mxCell>
        <mxCell id="kXxbAkpytbKIzll8L2PJ-36" value="gán" style="html=1;whiteSpace=wrap;aspect=fixed;shape=isoRectangle;fontSize=25;" parent="1" vertex="1">
          <mxGeometry x="72.5" y="-141" width="111" height="66.6" as="geometry" />
        </mxCell>
        <mxCell id="kXxbAkpytbKIzll8L2PJ-73" style="edgeStyle=orthogonalEdgeStyle;rounded=0;orthogonalLoop=1;jettySize=auto;html=1;entryX=1;entryY=0.5;entryDx=0;entryDy=0;fontFamily=Helvetica;fontSize=25;fontColor=default;endArrow=none;endFill=0;" parent="1" source="kXxbAkpytbKIzll8L2PJ-39" target="kXxbAkpytbKIzll8L2PJ-29" edge="1">
          <mxGeometry relative="1" as="geometry" />
        </mxCell>
        <mxCell id="kXxbAkpytbKIzll8L2PJ-39" value="có" style="html=1;whiteSpace=wrap;aspect=fixed;shape=isoRectangle;fontSize=25;" parent="1" vertex="1">
          <mxGeometry x="-101" y="16.4" width="82" height="49.2" as="geometry" />
        </mxCell>
        <mxCell id="kXxbAkpytbKIzll8L2PJ-51" style="edgeStyle=orthogonalEdgeStyle;rounded=0;orthogonalLoop=1;jettySize=auto;html=1;entryX=0;entryY=0.5;entryDx=0;entryDy=0;fontFamily=Helvetica;fontSize=25;fontColor=default;endArrow=none;endFill=0;" parent="1" source="kXxbAkpytbKIzll8L2PJ-42" target="kXxbAkpytbKIzll8L2PJ-15" edge="1">
          <mxGeometry relative="1" as="geometry" />
        </mxCell>
        <mxCell id="kXxbAkpytbKIzll8L2PJ-42" value="thuộc" style="html=1;whiteSpace=wrap;aspect=fixed;shape=isoRectangle;fontSize=25;" parent="1" vertex="1">
          <mxGeometry x="566.5" y="-171" width="113" height="67.8" as="geometry" />
        </mxCell>
        <mxCell id="kXxbAkpytbKIzll8L2PJ-58" style="edgeStyle=orthogonalEdgeStyle;rounded=0;orthogonalLoop=1;jettySize=auto;html=1;entryX=0.5;entryY=0;entryDx=0;entryDy=0;fontFamily=Helvetica;fontSize=25;fontColor=default;endArrow=none;endFill=0;" parent="1" source="kXxbAkpytbKIzll8L2PJ-43" target="kXxbAkpytbKIzll8L2PJ-17" edge="1">
          <mxGeometry relative="1" as="geometry" />
        </mxCell>
        <mxCell id="kXxbAkpytbKIzll8L2PJ-43" value="phụ trach" style="html=1;whiteSpace=wrap;aspect=fixed;shape=isoRectangle;fontSize=25;" parent="1" vertex="1">
          <mxGeometry x="998" y="-342.45" width="151.5" height="90.9" as="geometry" />
        </mxCell>
        <mxCell id="kXxbAkpytbKIzll8L2PJ-60" style="edgeStyle=orthogonalEdgeStyle;rounded=0;orthogonalLoop=1;jettySize=auto;html=1;fontFamily=Helvetica;fontSize=25;fontColor=default;endArrow=none;endFill=0;" parent="1" source="kXxbAkpytbKIzll8L2PJ-44" target="kXxbAkpytbKIzll8L2PJ-18" edge="1">
          <mxGeometry relative="1" as="geometry" />
        </mxCell>
        <mxCell id="kXxbAkpytbKIzll8L2PJ-44" value="có" style="html=1;whiteSpace=wrap;aspect=fixed;shape=isoRectangle;fontSize=25;flipV=0;" parent="1" vertex="1">
          <mxGeometry x="1021.8800000000001" y="-6.25" width="103.75" height="62.25" as="geometry" />
        </mxCell>
        <mxCell id="kXxbAkpytbKIzll8L2PJ-84" style="edgeStyle=orthogonalEdgeStyle;rounded=0;orthogonalLoop=1;jettySize=auto;html=1;entryX=0.5;entryY=0;entryDx=0;entryDy=0;fontFamily=Helvetica;fontSize=25;fontColor=default;endArrow=none;endFill=0;" parent="1" source="kXxbAkpytbKIzll8L2PJ-45" edge="1">
          <mxGeometry relative="1" as="geometry">
            <mxPoint x="162" y="317" as="targetPoint" />
          </mxGeometry>
        </mxCell>
        <mxCell id="kXxbAkpytbKIzll8L2PJ-45" value="có" style="html=1;whiteSpace=wrap;aspect=fixed;shape=isoRectangle;fontSize=25;" parent="1" vertex="1">
          <mxGeometry x="117.5" y="198.8" width="89" height="53.4" as="geometry" />
        </mxCell>
        <mxCell id="kXxbAkpytbKIzll8L2PJ-83" style="edgeStyle=orthogonalEdgeStyle;rounded=0;orthogonalLoop=1;jettySize=auto;html=1;entryX=1;entryY=0.5;entryDx=0;entryDy=0;fontFamily=Helvetica;fontSize=25;fontColor=default;endArrow=none;endFill=0;" parent="1" source="kXxbAkpytbKIzll8L2PJ-47" target="kXxbAkpytbKIzll8L2PJ-26" edge="1">
          <mxGeometry relative="1" as="geometry" />
        </mxCell>
        <mxCell id="kXxbAkpytbKIzll8L2PJ-47" value="đạt được" style="html=1;whiteSpace=wrap;aspect=fixed;shape=isoRectangle;fontSize=25;" parent="1" vertex="1">
          <mxGeometry x="-123" y="188" width="125" height="75" as="geometry" />
        </mxCell>
        <mxCell id="kXxbAkpytbKIzll8L2PJ-56" style="edgeStyle=orthogonalEdgeStyle;rounded=0;orthogonalLoop=1;jettySize=auto;html=1;entryX=0.5;entryY=1;entryDx=0;entryDy=0;fontFamily=Helvetica;fontSize=25;fontColor=default;endArrow=none;endFill=0;" parent="1" source="kXxbAkpytbKIzll8L2PJ-54" target="kXxbAkpytbKIzll8L2PJ-15" edge="1">
          <mxGeometry relative="1" as="geometry" />
        </mxCell>
        <mxCell id="kXxbAkpytbKIzll8L2PJ-54" value="thuộc" style="html=1;whiteSpace=wrap;aspect=fixed;shape=isoRectangle;fontSize=25;" parent="1" vertex="1">
          <mxGeometry x="775" y="166" width="113" height="67.8" as="geometry" />
        </mxCell>
        <mxCell id="kXxbAkpytbKIzll8L2PJ-55" style="edgeStyle=orthogonalEdgeStyle;rounded=0;orthogonalLoop=1;jettySize=auto;html=1;entryX=0.018;entryY=0.457;entryDx=0;entryDy=0;entryPerimeter=0;fontFamily=Helvetica;fontSize=25;fontColor=default;endArrow=none;endFill=0;" parent="1" source="kXxbAkpytbKIzll8L2PJ-13" target="kXxbAkpytbKIzll8L2PJ-54" edge="1">
          <mxGeometry relative="1" as="geometry" />
        </mxCell>
        <mxCell id="kXxbAkpytbKIzll8L2PJ-57" style="edgeStyle=orthogonalEdgeStyle;rounded=0;orthogonalLoop=1;jettySize=auto;html=1;exitX=0.5;exitY=0;exitDx=0;exitDy=0;entryX=0.035;entryY=0.51;entryDx=0;entryDy=0;entryPerimeter=0;fontFamily=Helvetica;fontSize=25;fontColor=default;endArrow=none;endFill=0;" parent="1" source="kXxbAkpytbKIzll8L2PJ-15" target="kXxbAkpytbKIzll8L2PJ-43" edge="1">
          <mxGeometry relative="1" as="geometry">
            <Array as="points">
              <mxPoint x="832" y="-296" />
            </Array>
          </mxGeometry>
        </mxCell>
        <mxCell id="kXxbAkpytbKIzll8L2PJ-62" style="edgeStyle=orthogonalEdgeStyle;rounded=0;orthogonalLoop=1;jettySize=auto;html=1;entryX=0.501;entryY=0.05;entryDx=0;entryDy=0;entryPerimeter=0;fontFamily=Helvetica;fontSize=25;fontColor=default;endArrow=none;endFill=0;" parent="1" source="kXxbAkpytbKIzll8L2PJ-17" target="kXxbAkpytbKIzll8L2PJ-44" edge="1">
          <mxGeometry relative="1" as="geometry" />
        </mxCell>
        <mxCell id="kXxbAkpytbKIzll8L2PJ-88" style="edgeStyle=orthogonalEdgeStyle;rounded=0;orthogonalLoop=1;jettySize=auto;html=1;entryX=0.5;entryY=0;entryDx=0;entryDy=0;fontFamily=Helvetica;fontSize=25;fontColor=default;endArrow=none;endFill=0;" parent="1" source="kXxbAkpytbKIzll8L2PJ-63" target="kXxbAkpytbKIzll8L2PJ-20" edge="1">
          <mxGeometry relative="1" as="geometry" />
        </mxCell>
        <mxCell id="kXxbAkpytbKIzll8L2PJ-63" value="có" style="html=1;whiteSpace=wrap;aspect=fixed;shape=isoRectangle;fontSize=25;" parent="1" vertex="1">
          <mxGeometry x="1251" y="-150.7" width="89" height="53.4" as="geometry" />
        </mxCell>
        <mxCell id="kXxbAkpytbKIzll8L2PJ-86" style="edgeStyle=orthogonalEdgeStyle;rounded=0;orthogonalLoop=1;jettySize=auto;html=1;fontFamily=Helvetica;fontSize=25;fontColor=default;endArrow=none;endFill=0;" parent="1" source="kXxbAkpytbKIzll8L2PJ-64" target="kXxbAkpytbKIzll8L2PJ-19" edge="1">
          <mxGeometry relative="1" as="geometry" />
        </mxCell>
        <mxCell id="kXxbAkpytbKIzll8L2PJ-64" value="có" style="html=1;whiteSpace=wrap;aspect=fixed;shape=isoRectangle;fontSize=25;" parent="1" vertex="1">
          <mxGeometry x="1029.25" y="304" width="89" height="53.4" as="geometry" />
        </mxCell>
        <mxCell id="kXxbAkpytbKIzll8L2PJ-72" style="edgeStyle=orthogonalEdgeStyle;rounded=0;orthogonalLoop=1;jettySize=auto;html=1;entryX=0.948;entryY=0.494;entryDx=0;entryDy=0;entryPerimeter=0;fontFamily=Helvetica;fontSize=25;fontColor=default;endArrow=none;endFill=0;" parent="1" source="kXxbAkpytbKIzll8L2PJ-2" target="kXxbAkpytbKIzll8L2PJ-39" edge="1">
          <mxGeometry relative="1" as="geometry" />
        </mxCell>
        <mxCell id="kXxbAkpytbKIzll8L2PJ-78" style="edgeStyle=orthogonalEdgeStyle;rounded=0;orthogonalLoop=1;jettySize=auto;html=1;fontFamily=Helvetica;fontSize=25;fontColor=default;endArrow=none;endFill=0;" parent="1" source="kXxbAkpytbKIzll8L2PJ-74" target="kXxbAkpytbKIzll8L2PJ-30" edge="1">
          <mxGeometry relative="1" as="geometry" />
        </mxCell>
        <mxCell id="kXxbAkpytbKIzll8L2PJ-74" value="có" style="html=1;whiteSpace=wrap;aspect=fixed;shape=isoRectangle;fontSize=25;" parent="1" vertex="1">
          <mxGeometry x="-101" y="114.2" width="81" height="48.6" as="geometry" />
        </mxCell>
        <mxCell id="kXxbAkpytbKIzll8L2PJ-77" style="edgeStyle=orthogonalEdgeStyle;rounded=0;orthogonalLoop=1;jettySize=auto;html=1;entryX=0.951;entryY=0.582;entryDx=0;entryDy=0;entryPerimeter=0;fontFamily=Helvetica;fontSize=25;fontColor=default;endArrow=none;endFill=0;" parent="1" source="kXxbAkpytbKIzll8L2PJ-2" target="kXxbAkpytbKIzll8L2PJ-74" edge="1">
          <mxGeometry relative="1" as="geometry">
            <Array as="points">
              <mxPoint x="71" y="139" />
              <mxPoint x="-17" y="139" />
              <mxPoint x="-17" y="143" />
            </Array>
          </mxGeometry>
        </mxCell>
        <mxCell id="kXxbAkpytbKIzll8L2PJ-81" style="edgeStyle=orthogonalEdgeStyle;rounded=0;orthogonalLoop=1;jettySize=auto;html=1;entryX=0.977;entryY=0.526;entryDx=0;entryDy=0;entryPerimeter=0;fontFamily=Helvetica;fontSize=25;fontColor=default;endArrow=none;endFill=0;" parent="1" source="kXxbAkpytbKIzll8L2PJ-2" target="kXxbAkpytbKIzll8L2PJ-47" edge="1">
          <mxGeometry relative="1" as="geometry">
            <Array as="points">
              <mxPoint x="106" y="104" />
              <mxPoint x="106" y="104" />
            </Array>
          </mxGeometry>
        </mxCell>
        <mxCell id="kXxbAkpytbKIzll8L2PJ-93" style="edgeStyle=orthogonalEdgeStyle;rounded=0;orthogonalLoop=1;jettySize=auto;html=1;entryX=0.5;entryY=1;entryDx=0;entryDy=0;fontFamily=Helvetica;fontSize=25;fontColor=default;endArrow=none;endFill=0;" parent="1" source="kXxbAkpytbKIzll8L2PJ-91" target="kXxbAkpytbKIzll8L2PJ-20" edge="1">
          <mxGeometry relative="1" as="geometry" />
        </mxCell>
        <mxCell id="kXxbAkpytbKIzll8L2PJ-91" value="thuộc" style="html=1;whiteSpace=wrap;aspect=fixed;shape=isoRectangle;fontSize=25;" parent="1" vertex="1">
          <mxGeometry x="1239" y="168.5" width="113" height="67.8" as="geometry" />
        </mxCell>
        <mxCell id="kXxbAkpytbKIzll8L2PJ-97" style="edgeStyle=orthogonalEdgeStyle;rounded=0;orthogonalLoop=1;jettySize=auto;html=1;entryX=0;entryY=0.5;entryDx=0;entryDy=0;fontFamily=Helvetica;fontSize=25;fontColor=default;endArrow=none;endFill=0;exitX=0.487;exitY=0.993;exitDx=0;exitDy=0;exitPerimeter=0;" parent="1" source="kXxbAkpytbKIzll8L2PJ-94" target="kXxbAkpytbKIzll8L2PJ-19" edge="1">
          <mxGeometry relative="1" as="geometry" />
        </mxCell>
        <mxCell id="kXxbAkpytbKIzll8L2PJ-94" value="giảng dạy" style="html=1;whiteSpace=wrap;aspect=fixed;shape=isoRectangle;fontSize=25;" parent="1" vertex="1">
          <mxGeometry x="758.25" y="315" width="151.5" height="90.9" as="geometry" />
        </mxCell>
        <mxCell id="kXxbAkpytbKIzll8L2PJ-96" style="edgeStyle=orthogonalEdgeStyle;rounded=0;orthogonalLoop=1;jettySize=auto;html=1;entryX=0.004;entryY=0.489;entryDx=0;entryDy=0;entryPerimeter=0;fontFamily=Helvetica;fontSize=25;fontColor=default;endArrow=none;endFill=0;exitX=0.5;exitY=1;exitDx=0;exitDy=0;" parent="1" source="kXxbAkpytbKIzll8L2PJ-13" target="kXxbAkpytbKIzll8L2PJ-94" edge="1">
          <mxGeometry relative="1" as="geometry" />
        </mxCell>
        <mxCell id="kXxbAkpytbKIzll8L2PJ-100" style="edgeStyle=orthogonalEdgeStyle;rounded=0;orthogonalLoop=1;jettySize=auto;html=1;entryX=0.057;entryY=0.52;entryDx=0;entryDy=0;entryPerimeter=0;fontFamily=Helvetica;fontSize=25;fontColor=default;endArrow=none;endFill=0;" parent="1" source="kXxbAkpytbKIzll8L2PJ-18" target="kXxbAkpytbKIzll8L2PJ-91" edge="1">
          <mxGeometry relative="1" as="geometry" />
        </mxCell>
        <mxCell id="kXxbAkpytbKIzll8L2PJ-103" value="(1,n)" style="edgeLabel;html=1;align=center;verticalAlign=middle;resizable=0;points=[];rounded=0;strokeColor=default;fontFamily=Helvetica;fontSize=25;fontColor=default;fillColor=default;" parent="1" vertex="1" connectable="0">
          <mxGeometry x="865" y="-202" as="geometry" />
        </mxCell>
        <mxCell id="kXxbAkpytbKIzll8L2PJ-106" value="(1,1)" style="edgeLabel;html=1;align=center;verticalAlign=middle;resizable=0;points=[];rounded=0;strokeColor=default;fontFamily=Helvetica;fontSize=25;fontColor=default;fillColor=default;" parent="1" vertex="1" connectable="0">
          <mxGeometry x="807" y="-433" as="geometry">
            <mxPoint x="-290" y="457" as="offset" />
          </mxGeometry>
        </mxCell>
        <mxCell id="mWgJhnljboW8orJXfkJP-1" value="(1,1)" style="edgeLabel;html=1;align=center;verticalAlign=middle;resizable=0;points=[];rounded=0;strokeColor=default;fontFamily=Helvetica;fontSize=25;fontColor=default;fillColor=default;" vertex="1" connectable="0" parent="1">
          <mxGeometry x="1056" y="-388" as="geometry">
            <mxPoint x="124" y="232" as="offset" />
          </mxGeometry>
        </mxCell>
        <mxCell id="mWgJhnljboW8orJXfkJP-2" value="(1,1)" style="edgeLabel;html=1;align=center;verticalAlign=middle;resizable=0;points=[];rounded=0;strokeColor=default;fontFamily=Helvetica;fontSize=25;fontColor=default;fillColor=default;" vertex="1" connectable="0" parent="1">
          <mxGeometry x="1387" y="-268" as="geometry">
            <mxPoint x="-42" y="226" as="offset" />
          </mxGeometry>
        </mxCell>
        <mxCell id="mWgJhnljboW8orJXfkJP-3" value="(1,1)" style="edgeLabel;html=1;align=center;verticalAlign=middle;resizable=0;points=[];rounded=0;strokeColor=default;fontFamily=Helvetica;fontSize=25;fontColor=default;fillColor=default;" vertex="1" connectable="0" parent="1">
          <mxGeometry x="995" y="-455" as="geometry">
            <mxPoint x="124" y="232" as="offset" />
          </mxGeometry>
        </mxCell>
        <mxCell id="mWgJhnljboW8orJXfkJP-4" value="(1,n)" style="edgeLabel;html=1;align=center;verticalAlign=middle;resizable=0;points=[];rounded=0;strokeColor=default;fontFamily=Helvetica;fontSize=25;fontColor=default;fillColor=default;" vertex="1" connectable="0" parent="1">
          <mxGeometry x="1026" y="-74.4" as="geometry" />
        </mxCell>
        <mxCell id="mWgJhnljboW8orJXfkJP-5" value="(1,n)" style="edgeLabel;html=1;align=center;verticalAlign=middle;resizable=0;points=[];rounded=0;strokeColor=default;fontFamily=Helvetica;fontSize=25;fontColor=default;fillColor=default;" vertex="1" connectable="0" parent="1">
          <mxGeometry x="1310" y="130" as="geometry">
            <mxPoint x="-433" y="-192" as="offset" />
          </mxGeometry>
        </mxCell>
        <mxCell id="mWgJhnljboW8orJXfkJP-6" value="(1,n)" style="edgeLabel;html=1;align=center;verticalAlign=middle;resizable=0;points=[];rounded=0;strokeColor=default;fontFamily=Helvetica;fontSize=25;fontColor=default;fillColor=default;" vertex="1" connectable="0" parent="1">
          <mxGeometry x="914" y="-468" as="geometry">
            <mxPoint x="424" y="605" as="offset" />
          </mxGeometry>
        </mxCell>
        <mxCell id="mWgJhnljboW8orJXfkJP-7" value="(1,1)" style="edgeLabel;html=1;align=center;verticalAlign=middle;resizable=0;points=[];rounded=0;strokeColor=default;fontFamily=Helvetica;fontSize=25;fontColor=default;fillColor=default;" vertex="1" connectable="0" parent="1">
          <mxGeometry x="1073.76" y="-468" as="geometry">
            <mxPoint x="-414" y="438" as="offset" />
          </mxGeometry>
        </mxCell>
        <mxCell id="mWgJhnljboW8orJXfkJP-8" value="(1,1)" style="edgeLabel;html=1;align=center;verticalAlign=middle;resizable=0;points=[];rounded=0;strokeColor=default;fontFamily=Helvetica;fontSize=25;fontColor=default;fillColor=default;" vertex="1" connectable="0" parent="1">
          <mxGeometry x="742" y="-215" as="geometry">
            <mxPoint x="-25" y="57" as="offset" />
          </mxGeometry>
        </mxCell>
        <mxCell id="mWgJhnljboW8orJXfkJP-9" value="(1,1)" style="edgeLabel;html=1;align=center;verticalAlign=middle;resizable=0;points=[];rounded=0;strokeColor=default;fontFamily=Helvetica;fontSize=25;fontColor=default;fillColor=default;" vertex="1" connectable="0" parent="1">
          <mxGeometry x="693" y="-38" as="geometry">
            <mxPoint x="48" y="217" as="offset" />
          </mxGeometry>
        </mxCell>
        <mxCell id="mWgJhnljboW8orJXfkJP-10" value="(1,n)" style="edgeLabel;html=1;align=center;verticalAlign=middle;resizable=0;points=[];rounded=0;strokeColor=default;fontFamily=Helvetica;fontSize=25;fontColor=default;fillColor=default;" vertex="1" connectable="0" parent="1">
          <mxGeometry x="1052" y="-60" as="geometry">
            <mxPoint x="72" y="204" as="offset" />
          </mxGeometry>
        </mxCell>
        <mxCell id="mWgJhnljboW8orJXfkJP-11" value="(1,1)" style="edgeLabel;html=1;align=center;verticalAlign=middle;resizable=0;points=[];rounded=0;strokeColor=default;fontFamily=Helvetica;fontSize=25;fontColor=default;fillColor=default;" vertex="1" connectable="0" parent="1">
          <mxGeometry x="1058" y="-458" as="geometry">
            <mxPoint x="52" y="860" as="offset" />
          </mxGeometry>
        </mxCell>
        <mxCell id="mWgJhnljboW8orJXfkJP-12" value="(1,n)" style="edgeLabel;html=1;align=center;verticalAlign=middle;resizable=0;points=[];rounded=0;strokeColor=default;fontFamily=Helvetica;fontSize=25;fontColor=default;fillColor=default;" vertex="1" connectable="0" parent="1">
          <mxGeometry x="957" y="56" as="geometry">
            <mxPoint x="72" y="204" as="offset" />
          </mxGeometry>
        </mxCell>
        <mxCell id="mWgJhnljboW8orJXfkJP-13" value="(1,1)" style="edgeLabel;html=1;align=center;verticalAlign=middle;resizable=0;points=[];rounded=0;strokeColor=default;fontFamily=Helvetica;fontSize=25;fontColor=default;fillColor=default;" vertex="1" connectable="0" parent="1">
          <mxGeometry x="900" y="-372" as="geometry">
            <mxPoint x="52" y="860" as="offset" />
          </mxGeometry>
        </mxCell>
        <mxCell id="mWgJhnljboW8orJXfkJP-14" value="(1,n)" style="edgeLabel;html=1;align=center;verticalAlign=middle;resizable=0;points=[];rounded=0;strokeColor=default;fontFamily=Helvetica;fontSize=25;fontColor=default;fillColor=default;" vertex="1" connectable="0" parent="1">
          <mxGeometry x="512" y="61" as="geometry">
            <mxPoint x="72" y="204" as="offset" />
          </mxGeometry>
        </mxCell>
        <mxCell id="mWgJhnljboW8orJXfkJP-15" value="(1,1)" style="edgeLabel;html=1;align=center;verticalAlign=middle;resizable=0;points=[];rounded=0;strokeColor=default;fontFamily=Helvetica;fontSize=25;fontColor=default;fillColor=default;" vertex="1" connectable="0" parent="1">
          <mxGeometry x="1052" y="-468" as="geometry">
            <mxPoint x="-1013" y="229" as="offset" />
          </mxGeometry>
        </mxCell>
        <mxCell id="mWgJhnljboW8orJXfkJP-19" value="(1,1)" style="edgeLabel;html=1;align=center;verticalAlign=middle;resizable=0;points=[];rounded=0;strokeColor=default;fontFamily=Helvetica;fontSize=25;fontColor=default;fillColor=default;" vertex="1" connectable="0" parent="1">
          <mxGeometry x="1201" y="-517" as="geometry">
            <mxPoint x="-1013" y="229" as="offset" />
          </mxGeometry>
        </mxCell>
        <mxCell id="mWgJhnljboW8orJXfkJP-20" value="(1,1)" style="edgeLabel;html=1;align=center;verticalAlign=middle;resizable=0;points=[];rounded=0;strokeColor=default;fontFamily=Helvetica;fontSize=25;fontColor=default;fillColor=default;" vertex="1" connectable="0" parent="1">
          <mxGeometry x="1037" y="-597" as="geometry">
            <mxPoint x="-1013" y="229" as="offset" />
          </mxGeometry>
        </mxCell>
        <mxCell id="mWgJhnljboW8orJXfkJP-22" value="(1,1)" style="edgeLabel;html=1;align=center;verticalAlign=middle;resizable=0;points=[];rounded=0;strokeColor=default;fontFamily=Helvetica;fontSize=25;fontColor=default;fillColor=default;" vertex="1" connectable="0" parent="1">
          <mxGeometry x="820" y="-429" as="geometry">
            <mxPoint x="-791" y="552" as="offset" />
          </mxGeometry>
        </mxCell>
        <mxCell id="mWgJhnljboW8orJXfkJP-23" value="(1,1)" style="edgeLabel;html=1;align=center;verticalAlign=middle;resizable=0;points=[];rounded=0;strokeColor=default;fontFamily=Helvetica;fontSize=25;fontColor=default;fillColor=default;" vertex="1" connectable="0" parent="1">
          <mxGeometry x="245" y="111" as="geometry">
            <mxPoint x="-377" y="9" as="offset" />
          </mxGeometry>
        </mxCell>
        <mxCell id="mWgJhnljboW8orJXfkJP-24" value="(1,1)" style="edgeLabel;html=1;align=center;verticalAlign=middle;resizable=0;points=[];rounded=0;strokeColor=default;fontFamily=Helvetica;fontSize=25;fontColor=default;fillColor=default;" vertex="1" connectable="0" parent="1">
          <mxGeometry x="-273" y="213" as="geometry">
            <mxPoint x="326" y="-11" as="offset" />
          </mxGeometry>
        </mxCell>
        <mxCell id="mWgJhnljboW8orJXfkJP-25" value="(1,1)" style="edgeLabel;html=1;align=center;verticalAlign=middle;resizable=0;points=[];rounded=0;strokeColor=default;fontFamily=Helvetica;fontSize=25;fontColor=default;fillColor=default;" vertex="1" connectable="0" parent="1">
          <mxGeometry x="55" y="195" as="geometry">
            <mxPoint x="-201" y="72" as="offset" />
          </mxGeometry>
        </mxCell>
        <mxCell id="mWgJhnljboW8orJXfkJP-26" value="(1,1)" style="edgeLabel;html=1;align=center;verticalAlign=middle;resizable=0;points=[];rounded=0;strokeColor=default;fontFamily=Helvetica;fontSize=25;fontColor=default;fillColor=default;" vertex="1" connectable="0" parent="1">
          <mxGeometry x="-150" y="258" as="geometry">
            <mxPoint x="168" y="-234" as="offset" />
          </mxGeometry>
        </mxCell>
        <mxCell id="mWgJhnljboW8orJXfkJP-27" value="(1,1)" style="edgeLabel;html=1;align=center;verticalAlign=middle;resizable=0;points=[];rounded=0;strokeColor=default;fontFamily=Helvetica;fontSize=25;fontColor=default;fillColor=default;" vertex="1" connectable="0" parent="1">
          <mxGeometry x="-91" y="81" as="geometry">
            <mxPoint x="-38" y="-64" as="offset" />
          </mxGeometry>
        </mxCell>
        <mxCell id="mWgJhnljboW8orJXfkJP-28" value="(1,1)" style="edgeLabel;html=1;align=center;verticalAlign=middle;resizable=0;points=[];rounded=0;strokeColor=default;fontFamily=Helvetica;fontSize=25;fontColor=default;fillColor=default;" vertex="1" connectable="0" parent="1">
          <mxGeometry x="392" y="205" as="geometry">
            <mxPoint x="47" y="-412" as="offset" />
          </mxGeometry>
        </mxCell>
        <mxCell id="mWgJhnljboW8orJXfkJP-29" value="(1,1)" style="edgeLabel;html=1;align=center;verticalAlign=middle;resizable=0;points=[];rounded=0;strokeColor=default;fontFamily=Helvetica;fontSize=25;fontColor=default;fillColor=default;" vertex="1" connectable="0" parent="1">
          <mxGeometry x="438" y="-209" as="geometry">
            <mxPoint x="-211" y="146" as="offset" />
          </mxGeometry>
        </mxCell>
        <mxCell id="mWgJhnljboW8orJXfkJP-30" value="(1,1)" style="edgeLabel;html=1;align=center;verticalAlign=middle;resizable=0;points=[];rounded=0;strokeColor=default;fontFamily=Helvetica;fontSize=25;fontColor=default;fillColor=default;" vertex="1" connectable="0" parent="1">
          <mxGeometry x="-86" y="196" as="geometry">
            <mxPoint x="291" y="82" as="offset" />
          </mxGeometry>
        </mxCell>
        <mxCell id="mWgJhnljboW8orJXfkJP-31" value="(1,1)" style="edgeLabel;html=1;align=center;verticalAlign=middle;resizable=0;points=[];rounded=0;strokeColor=default;fontFamily=Helvetica;fontSize=25;fontColor=default;fillColor=default;" vertex="1" connectable="0" parent="1">
          <mxGeometry x="422" y="144" as="geometry">
            <mxPoint x="-225" y="5" as="offset" />
          </mxGeometry>
        </mxCell>
        <mxCell id="mWgJhnljboW8orJXfkJP-32" value="(1,1)" style="edgeLabel;html=1;align=center;verticalAlign=middle;resizable=0;points=[];rounded=0;strokeColor=default;fontFamily=Helvetica;fontSize=25;fontColor=default;fillColor=default;" vertex="1" connectable="0" parent="1">
          <mxGeometry x="798" y="-424" as="geometry">
            <mxPoint x="-286" y="596" as="offset" />
          </mxGeometry>
        </mxCell>
        <mxCell id="mWgJhnljboW8orJXfkJP-33" value="(1,n)" style="edgeLabel;html=1;align=center;verticalAlign=middle;resizable=0;points=[];rounded=0;strokeColor=default;fontFamily=Helvetica;fontSize=25;fontColor=default;fillColor=default;" vertex="1" connectable="0" parent="1">
          <mxGeometry x="-145" y="-357" as="geometry">
            <mxPoint x="72" y="204" as="offset" />
          </mxGeometry>
        </mxCell>
        <mxCell id="mWgJhnljboW8orJXfkJP-34" value="(1,n)" style="edgeLabel;html=1;align=center;verticalAlign=middle;resizable=0;points=[];rounded=0;strokeColor=default;fontFamily=Helvetica;fontSize=25;fontColor=default;fillColor=default;" vertex="1" connectable="0" parent="1">
          <mxGeometry x="210" y="-183" as="geometry">
            <mxPoint x="72" y="204" as="offset" />
          </mxGeometry>
        </mxCell>
        <mxCell id="mWgJhnljboW8orJXfkJP-35" value="(1,n)" style="edgeLabel;html=1;align=center;verticalAlign=middle;resizable=0;points=[];rounded=0;strokeColor=default;fontFamily=Helvetica;fontSize=25;fontColor=default;fillColor=default;" vertex="1" connectable="0" parent="1">
          <mxGeometry x="242" y="-69" as="geometry">
            <mxPoint x="72" y="204" as="offset" />
          </mxGeometry>
        </mxCell>
      </root>
    </mxGraphModel>
  </diagram>
</mxfile>
